<?xml version="1.0" standalone="no"?>
<!DOCTYPE svg PUBLIC "-//W3C//DTD SVG 20010904//EN"
 "http://www.w3.org/TR/2001/REC-SVG-20010904/DTD/svg10.dtd">
<svg version="1.0" xmlns="http://www.w3.org/2000/svg"
 width="280.000000pt" height="254.000000pt" viewBox="0 0 280.000000 254.000000"
 preserveAspectRatio="xMidYMid meet">
<metadata>
Created by potrace 1.14, written by Peter Selinger 2001-2017
</metadata>
<g transform="translate(0.000000,254.000000) scale(0.100000,-0.100000)"
fill="#000000" stroke="none">
<path d="M644 2311 c-61 -10 -140 -44 -172 -74 -13 -12 -36 -44 -50 -72 -26
-49 -27 -54 -25 -210 3 -297 63 -673 169 -1060 40 -145 137 -447 165 -512 24
-56 94 -132 144 -154 81 -37 183 -15 240 52 36 43 97 174 123 264 12 39 31
106 43 149 42 145 131 205 208 140 42 -35 78 -116 147 -327 63 -193 90 -239
165 -277 54 -28 142 -27 194 3 77 44 112 108 181 336 140 459 220 945 226
1371 3 144 1 158 -20 202 -61 123 -226 191 -411 168 -87 -12 -165 -32 -351
-95 -74 -25 -142 -45 -151 -45 -9 0 -99 23 -200 50 -101 28 -227 59 -280 70
-111 23 -272 32 -345 21z m256 -145 c84 -13 345 -78 356 -88 2 -3 -59 -33
-136 -68 -132 -60 -179 -90 -107 -69 105 31 712 182 818 203 134 27 258 33
322 15 54 -15 105 -63 113 -106 18 -93 -29 -599 -80 -868 -51 -272 -162 -679
-212 -776 -31 -62 -70 -79 -116 -52 -31 17 -38 32 -98 213 -75 223 -114 304
-171 360 -99 96 -233 92 -339 -11 -54 -52 -81 -111 -123 -264 -73 -267 -137
-350 -221 -284 -34 27 -46 52 -96 195 -167 483 -279 1057 -280 1422 0 122 26
163 115 185 41 10 163 6 255 -7z"/>
</g>
</svg>
