<?xml version="1.0" standalone="no"?>
<!DOCTYPE svg PUBLIC "-//W3C//DTD SVG 20010904//EN"
 "http://www.w3.org/TR/2001/REC-SVG-20010904/DTD/svg10.dtd">
<svg version="1.0" xmlns="http://www.w3.org/2000/svg"
 width="512.000000pt" height="512.000000pt" viewBox="0 0 512.000000 512.000000"
 preserveAspectRatio="xMidYMid meet">
<metadata>
Created by potrace 1.14, written by Peter Selinger 2001-2017
</metadata>
<g transform="translate(0.000000,512.000000) scale(0.100000,-0.100000)"
fill="#000000" stroke="none">
<path d="M1242 5110 c-172 -24 -350 -100 -438 -185 -193 -189 -227 -656 -94
-1317 47 -235 118 -503 211 -798 l40 -125 -16 -95 c-42 -270 -66 -566 -65
-825 1 -265 4 -289 69 -575 156 -681 265 -976 414 -1118 125 -118 246 -88 367
91 122 182 253 636 310 1077 42 320 163 568 343 703 107 81 170 88 281 33 130
-64 265 -212 332 -362 38 -85 62 -186 79 -329 44 -368 145 -775 248 -997 105
-228 231 -324 361 -274 46 18 126 92 172 160 80 117 171 356 234 610 95 383
116 572 114 1031 -1 288 -11 416 -55 707 l-21 136 30 94 c90 273 180 615 231
878 102 528 93 924 -27 1155 -46 89 -163 208 -248 253 -110 57 -214 76 -414
76 -193 0 -320 -16 -515 -63 -458 -112 -790 -112 -1250 0 -66 16 -165 36 -220
44 -121 19 -387 27 -473 15z m333 -320 c115 -14 228 -36 335 -65 47 -13 166
-36 265 -51 152 -23 212 -28 385 -28 173 0 233 5 385 28 99 15 218 38 265 51
330 91 629 97 787 16 106 -54 144 -119 164 -283 37 -299 -78 -961 -278 -1598
-51 -164 -51 -135 -10 -455 60 -462 62 -779 7 -1060 -61 -310 -175 -729 -238
-869 l-26 -59 -24 64 c-85 229 -157 523 -192 794 -11 88 -30 198 -41 244 -66
280 -234 544 -436 682 -61 43 -197 104 -262 119 -82 19 -158 14 -250 -16 -226
-75 -412 -254 -537 -518 -59 -124 -91 -249 -114 -448 -23 -189 -40 -289 -76
-433 -27 -110 -130 -450 -143 -473 -6 -10 -20 15 -45 79 -101 263 -228 782
-256 1049 -20 194 -7 485 37 830 41 326 41 317 -6 448 -125 348 -240 817 -286
1167 -19 140 -21 412 -5 492 22 106 73 193 140 237 89 59 254 79 455 56z"/>
</g>
</svg>
